#!OML:ASF X:\für Bonn\!DataBase\2005_08_12_Daniel\c3d\Daniel.ASF
:FULLY-SPECIFIED
:DEGREES
128
root 0.358452 14.6374 -1.3004 19.6058 -85.4205 -36.892
lowerback 39.5001 -3.945 6.78443
upperback 1.8146 -2.80282 -1.76374
thorax -17.9026 -1.93541 -4.14584
lowerneck 2.01382 1.24949 -2.80623
upperneck 3.23604 1.56514 1.44957
head 0.622166 0.746076 0.906093
rclavicle 4.32357e-015 1.59028e-015
rhumerus 62.5731 6.14462 -92.1747
rradius 3.71658
rwrist 56.6327
rhand -18.3978 3.91225
rfingers 7.12502
rthumb 7.88638 -25.9206
lclavicle 4.32357e-015 1.59028e-015
lhumerus 63.4712 7.52884 104.268
lradius 8.15365
lwrist -80.5392
lhand -14.7608 3.36123
lfingers 7.12502
lthumb 11.3954 33.0316
rfemur -22.4615 -12.6844 13.1262
rtibia 73.182
rfoot -17.1235 29.3289
rtoes -6.59547
lfemur -26.9061 8.94463 -5.41975
ltibia 75.9104
lfoot -29.9627 -19.3086
ltoes 0.120197
129
root 0.358565 14.836 -1.31232 20.8609 -85.3317 -37.7156
lowerback 38.9358 -3.95558 6.89655
upperback 1.66624 -2.77701 -1.72213
thorax -17.8732 -1.9289 -4.18858
lowerneck 2.11003 1.24525 -2.86109
upperneck 3.32514 1.55205 1.522
head 0.633115 0.737709 0.937803
rclavicle 6.55989e-015 1.35174e-014
rhumerus 62.0375 6.05863 -92.1636
rradius 3.88281
rwrist 56.3579
rhand -18.3134 4.0129
rfingers 7.12502
rthumb 7.9679 -25.8169
lclavicle 6.55989e-015 1.35174e-014
lhumerus 62.9154 7.60787 103.965
lradius 8.20259
lwrist -79.9498
lhand -14.9424 3.24083
lfingers 7.12502
lthumb 11.2203 32.9208
rfemur -21.0938 -11.4679 14.1677
rtibia 70.2213
rfoot -19.8839 26.9794
rtoes -8.07233
lfemur -25.9291 7.59749 -5.91447
ltibia 73.5645
lfoot -30.4369 -17.3991
ltoes -0.937559
130
root 0.356826 15.028 -1.32334 22.1247 -85.2404 -38.544
lowerback 38.341 -3.96668 7.02982
upperback 1.52145 -2.74809 -1.68648
thorax -17.8245 -1.9228 -4.25184
lowerneck 2.21125 1.24897 -2.90584
upperneck 3.41644 1.54935 1.59067
head 0.643777 0.734512 0.966621
rclavicle 4.27387e-015 1.63003e-014
rhumerus 61.5132 5.98667 -92.1691
rradius 4.04017
rwrist 56.0554
rhand -18.3002 4.07763
rfingers 7.12502
rthumb 7.98064 -25.7517
lclavicle 4.27387e-015 1.63003e-014
lhumerus 62.3503 7.67104 103.66
lradius 8.25064
lwrist -79.4213
lhand -15.1824 3.11818
lfingers 7.12502
lthumb 10.9888 32.8106
rfemur -19.704 -10.2208 15.2263
rtibia 67.2341
rfoot -22.5395 24.1239
rtoes -9.75565
lfemur -24.9663 6.22949 -6.37437
ltibia 71.2517
lfoot -30.8938 -15.505
ltoes -2.02585
131
root 0.354885 15.2156 -1.33465 24.0021 -85.1031 -40.0113
lowerback 37.7847 -3.99026 7.23008
upperback 1.35869 -2.69934 -1.62246
thorax -17.8061 -1.91366 -4.32695
lowerneck 2.36448 1.24153 -2.97894
upperneck 3.50377 1.52919 1.65518
head 0.644869 0.72182 0.998574
rclavicle -2.24627e-014 3.97569e-015
rhumerus 60.9578 5.8879 -92.1411
rradius 4.21331
rwrist 55.8124
rhand -18.3138 4.11959
rfingers 7.12502
rthumb 7.96751 -25.7102
lclavicle -2.24627e-014 3.97569e-015
lhumerus 61.7523 7.73476 103.374
lradius 8.3223
lwrist -78.9839
lhand -15.4035 2.96704
lfingers 7.12502
lthumb 10.7755 32.6706
rfemur -18.2677 -8.81408 16.3944
rtibia 64.2294
rfoot -24.9803 20.6449
rtoes -11.7603
lfemur -24.0105 4.88553 -6.70471
ltibia 68.973
lfoot -31.2311 -13.7504
ltoes -3.00904
132
root 0.351826 15.4026 -1.34558 26.4659 -84.9347 -42.0972
lowerback 37.2295 -4.03551 7.49976
upperback 1.22336 -2.65425 -1.55629
thorax -17.7523 -1.91084 -4.43432
lowerneck 2.46297 1.24097 -3.02104
upperneck 3.58102 1.52092 1.71565
head 0.651892 0.715884 1.02441
rclavicle -4.96962e-015 0
rhumerus 60.467 5.80094 -92.1353
rradius 4.35873
rwrist 55.5685
rhand -18.4101 4.16063
rfingers 7.12502
rthumb 7.87449 -25.6727
lclavicle -4.96962e-015 0
lhumerus 61.2087 7.80388 103.06
lradius 8.38024
lwrist -78.5166
lhand -15.6266 2.75718
lfingers 7.12502
lthumb 10.5603 32.4719
rfemur -16.7832 -7.28839 17.6251
rtibia 61.2472
rfoot -27.0093 16.6996
rtoes -13.7326
lfemur -23.0205 3.56628 -6.92725
ltibia 66.7189
lfoot -31.5378 -12.0642
ltoes -4.03288
133
root 0.347266 15.5806 -1.35543 28.9616 -84.7508 -44.2529
lowerback 36.6386 -4.07484 7.7857
upperback 1.14394 -2.60091 -1.47231
thorax -17.7274 -1.90746 -4.54805
lowerneck 2.63085 1.23842 -3.06681
upperneck 3.6519 1.50721 1.76991
head 0.64558 0.706604 1.04833
rclavicle 2.21148e-014 1.98785e-015
rhumerus 59.8999 5.72443 -92.1309
rradius 4.56691
rwrist 55.4197
rhand -18.5149 4.21353
rfingers 7.12502
rthumb 7.77339 -25.6236
lclavicle 2.21148e-014 1.98785e-015
lhumerus 60.6196 7.89041 102.749
lradius 8.43693
lwrist -78.1739
lhand -15.8192 2.55327
lfingers 7.12502
lthumb 10.3746 32.2773
rfemur -15.2916 -5.67017 18.835
rtibia 58.3528
rfoot -28.5379 12.4341
rtoes -15.7268
lfemur -22.0089 2.26884 -7.08465
ltibia 64.5187
lfoot -31.7411 -10.5317
ltoes -4.77691
134
root 0.341691 15.7478 -1.36619 30.6897 -84.5926 -45.6515
lowerback 36.1046 -4.10512 8.02949
upperback 1.00545 -2.55627 -1.42119
thorax -17.6804 -1.9045 -4.65953
lowerneck 2.73923 1.23525 -3.11182
upperneck 3.7953 1.49306 1.83442
head 0.671512 0.696736 1.07642
rclavicle -2.76062e-014 2.90226e-014
rhumerus 59.3178 5.61707 -92.1234
rradius 4.79022
rwrist 55.302
rhand -18.7122 4.23423
rfingers 7.12502
rthumb 7.58299 -25.6098
lclavicle -2.76062e-014 2.90226e-014
lhumerus 59.9859 7.94912 102.428
lradius 8.56616
lwrist -77.8308
lhand -16.0342 2.33606
lfingers 7.12502
lthumb 10.1672 32.0704
rfemur -13.8373 -4.0335 19.9056
rtibia 55.5956
rfoot -29.6547 8.18261
rtoes -17.6011
lfemur -21.0378 0.980522 -7.29533
ltibia 62.3973
lfoot -31.9374 -9.03896
ltoes -5.31627
